<svg width="19" height="11" viewBox="0 0 19 11" fill="none" xmlns="http://www.w3.org/2000/svg">
<g clip-path="url(#clip0_1_87)">
<path fill-rule="evenodd" clip-rule="evenodd" d="M14.0349 0.922889L17.5699 4.45889C17.7574 4.64642 17.8627 4.90072 17.8627 5.16589C17.8627 5.43105 17.7574 5.68536 17.5699 5.87289L14.0349 9.40789C13.8463 9.59005 13.5937 9.69084 13.3315 9.68856C13.0693 9.68629 12.8185 9.58112 12.6331 9.39571C12.4477 9.2103 12.3425 8.95949 12.3403 8.69729C12.338 8.43509 12.4388 8.18249 12.6209 7.99389L14.3979 6.21589H7.37793C7.11271 6.21589 6.85836 6.11053 6.67082 5.923C6.48329 5.73546 6.37793 5.48111 6.37793 5.21589C6.37793 4.95067 6.48329 4.69632 6.67082 4.50878C6.85836 4.32125 7.11271 4.21589 7.37793 4.21589H14.4989L12.6209 2.33589C12.4433 2.14644 12.3463 1.8953 12.3505 1.63562C12.3547 1.37594 12.4598 1.12808 12.6435 0.944499C12.8272 0.760916 13.0752 0.656009 13.3349 0.651976C13.5945 0.647943 13.8456 0.7451 14.0349 0.922889Z" fill="#1A47FF"/>
</g>
<defs>
<clipPath id="clip0_1_87">
<rect width="12" height="10" fill="white" transform="translate(6.37793 0.21582)"/>
</clipPath>
</defs>
</svg>
