<svg width="188" height="64" viewBox="0 0 188 64" fill="none" xmlns="http://www.w3.org/2000/svg">
<rect width="46.7459" height="64" rx="12" fill="#F1F6FF"/>
<g clip-path="url(#clip0_7_798)">
<path opacity="0.803" fill-rule="evenodd" clip-rule="evenodd" d="M29.9998 32.937C30.5302 32.937 31.0389 33.1477 31.414 33.5228C31.7891 33.8979 31.9998 34.4066 31.9998 34.937V38.487C31.9998 39.0174 31.7891 39.5262 31.414 39.9012C31.0389 40.2763 30.5302 40.487 29.9998 40.487H18.7218C18.226 40.487 17.7352 40.3894 17.2771 40.1997C16.8191 40.0099 16.403 39.7319 16.0524 39.3813C15.7019 39.0308 15.4238 38.6146 15.2341 38.1566C15.0444 37.6986 14.9468 37.2078 14.9468 36.712C14.9468 36.2163 15.0444 35.7254 15.2341 35.2674C15.4238 34.8094 15.7019 34.3932 16.0524 34.0427C16.403 33.6921 16.8191 33.4141 17.2771 33.2244C17.7352 33.0347 18.226 32.937 18.7218 32.937H29.9998ZM17.7898 34.825C17.5414 34.8245 17.2954 34.8729 17.0658 34.9674C16.8362 35.062 16.6274 35.2008 16.4515 35.376C16.2755 35.5513 16.1358 35.7594 16.0403 35.9887C15.9447 36.2179 15.8953 36.4637 15.8948 36.712C15.895 36.9604 15.9443 37.2063 16.0396 37.4356C16.135 37.6649 16.2746 37.8732 16.4505 38.0486C16.6264 38.2239 16.8351 38.3629 17.0647 38.4575C17.2944 38.5521 17.5404 38.6005 17.7888 38.6C18.0372 38.6005 18.2833 38.5521 18.513 38.4575C18.7427 38.3629 18.9515 38.224 19.1274 38.0486C19.3034 37.8733 19.4431 37.665 19.5386 37.4357C19.634 37.2063 19.6834 36.9604 19.6838 36.712C19.6833 36.4637 19.6338 36.2179 19.5383 35.9887C19.4428 35.7594 19.3031 35.5513 19.1271 35.376C18.9511 35.2008 18.7424 35.062 18.5127 34.9674C18.2831 34.8729 18.0381 34.8245 17.7898 34.825Z" fill="#1A47FF"/>
<path opacity="0.803" fill-rule="evenodd" clip-rule="evenodd" d="M25.9539 26.1202L28.4789 28.6352C28.8545 29.0096 29.0661 29.5178 29.067 30.0482C29.068 30.5785 28.8582 31.0875 28.4839 31.4632L28.4789 31.4692L20.5229 39.3942C19.8113 40.1033 18.8476 40.5015 17.8429 40.5015C16.8383 40.5015 15.8746 40.1033 15.1629 39.3942C14.8117 39.0441 14.5329 38.6282 14.3428 38.1702C14.1526 37.7122 14.0547 37.2211 14.0547 36.7252C14.0547 36.2293 14.1526 35.7382 14.3428 35.2802C14.5329 34.8222 14.8117 34.4063 15.1629 34.0562L23.1309 26.1192C23.5058 25.7458 24.0133 25.5361 24.5424 25.5361C25.0715 25.5361 25.5791 25.7468 25.9539 26.1202ZM17.7889 34.8252C17.2876 34.8244 16.8064 35.0227 16.4513 35.3766C16.0961 35.7304 15.896 36.2109 15.8949 36.7122C15.8952 36.9606 15.9444 37.2065 16.0398 37.4358C16.1351 37.6651 16.2747 37.8734 16.4506 38.0488C16.6265 38.2241 16.8353 38.3631 17.0649 38.4577C17.2945 38.5523 17.5406 38.6007 17.7889 38.6002C18.0374 38.6007 18.2834 38.5523 18.5131 38.4577C18.7428 38.3631 18.9516 38.2242 19.1276 38.0488C19.3036 37.8735 19.4433 37.6652 19.5388 37.4359C19.6342 37.2065 19.6835 36.9606 19.6839 36.7122C19.6834 36.4639 19.634 36.2181 19.5385 35.9889C19.4429 35.7596 19.3032 35.5515 19.1273 35.3762C18.9513 35.201 18.7425 35.0622 18.5129 34.9676C18.2833 34.8731 18.0373 34.8247 17.7889 34.8252Z" fill="#1A47FF"/>
<path fill-rule="evenodd" clip-rule="evenodd" d="M19.579 23.5C20.1094 23.5 20.6182 23.7107 20.9932 24.0858C21.3683 24.4609 21.579 24.9696 21.579 25.5V36.698C21.5872 37.2008 21.4952 37.7002 21.3084 38.1672C21.1217 38.6341 20.8438 39.0592 20.4911 39.4176C20.1384 39.7761 19.7179 40.0608 19.2541 40.2551C18.7903 40.4495 18.2924 40.5496 17.7895 40.5496C17.2866 40.5496 16.7888 40.4495 16.3249 40.2551C15.8611 40.0608 15.4406 39.7761 15.0879 39.4176C14.7352 39.0592 14.4574 38.6341 14.2706 38.1672C14.0838 37.7002 13.9918 37.2008 14 36.698V25.5C14 24.9696 14.2107 24.4609 14.5858 24.0858C14.9609 23.7107 15.4696 23.5 16 23.5H19.579ZM17.789 34.825C17.2877 34.8242 16.8065 35.0225 16.4513 35.3764C16.0962 35.7302 15.8961 36.2106 15.895 36.712C15.8953 36.9604 15.9445 37.2062 16.0398 37.4356C16.1352 37.6649 16.2748 37.8732 16.4507 38.0486C16.6266 38.2239 16.8353 38.3629 17.065 38.4575C17.2946 38.5521 17.5406 38.6005 17.789 38.6C18.0374 38.6005 18.2835 38.5521 18.5132 38.4575C18.7429 38.3629 18.9517 38.2239 19.1277 38.0486C19.3037 37.8733 19.4434 37.665 19.5388 37.4357C19.6343 37.2063 19.6836 36.9604 19.684 36.712C19.6835 36.4637 19.6341 36.2179 19.5385 35.9886C19.443 35.7594 19.3033 35.5513 19.1273 35.376C18.9514 35.2008 18.7426 35.062 18.513 34.9674C18.2833 34.8729 18.0373 34.8245 17.789 34.825Z" fill="#1F2024"/>
</g>
<path d="M64.8812 36.3042H58.6937V18.8497H64.9323C66.688 18.8497 68.1993 19.1991 69.4664 19.8979C70.7334 20.5911 71.7079 21.5883 72.3897 22.8894C73.0772 24.1906 73.4209 25.7474 73.4209 27.5599C73.4209 29.3781 73.0772 30.9406 72.3897 32.2474C71.7079 33.5542 70.7277 34.557 69.4493 35.2559C68.1766 35.9548 66.6539 36.3042 64.8812 36.3042ZM62.384 33.1423H64.7277C65.8187 33.1423 66.7363 32.9491 67.4806 32.5627C68.2306 32.1707 68.7931 31.5656 69.1681 30.7474C69.5488 29.9235 69.7391 28.861 69.7391 27.5599C69.7391 26.2701 69.5488 25.2161 69.1681 24.3979C68.7931 23.5798 68.2334 22.9775 67.4891 22.5911C66.7448 22.2048 65.8272 22.0116 64.7363 22.0116H62.384V33.1423ZM87.8968 36.3042H81.7093V18.8497H87.9479C89.7036 18.8497 91.215 19.1991 92.482 19.8979C93.7491 20.5911 94.7235 21.5883 95.4053 22.8894C96.0928 24.1906 96.4366 25.7474 96.4366 27.5599C96.4366 29.3781 96.0928 30.9406 95.4053 32.2474C94.7235 33.5542 93.7434 34.557 92.465 35.2559C91.1922 35.9548 89.6695 36.3042 87.8968 36.3042ZM85.3996 33.1423H87.7434C88.8343 33.1423 89.7519 32.9491 90.4962 32.5627C91.2462 32.1707 91.8087 31.5656 92.1837 30.7474C92.5644 29.9235 92.7547 28.861 92.7547 27.5599C92.7547 26.2701 92.5644 25.2161 92.1837 24.3979C91.8087 23.5798 91.2491 22.9775 90.5047 22.5911C89.7604 22.2048 88.8428 22.0116 87.7519 22.0116H85.3996V33.1423ZM99.1702 36.3042V18.8497H110.932V21.8923H102.861V26.0514H110.326V29.094H102.861V33.2616H110.966V36.3042H99.1702ZM123.334 23.8695C123.266 23.182 122.973 22.6479 122.456 22.2673C121.939 21.8866 121.238 21.6962 120.351 21.6962C119.749 21.6962 119.241 21.7815 118.826 21.9519C118.411 22.1167 118.093 22.3468 117.871 22.6423C117.655 22.9377 117.547 23.2729 117.547 23.6479C117.536 23.9604 117.601 24.2332 117.743 24.4661C117.891 24.6991 118.093 24.9008 118.348 25.0712C118.604 25.236 118.9 25.3809 119.235 25.5059C119.57 25.6252 119.928 25.7275 120.309 25.8127L121.877 26.1877C122.638 26.3582 123.337 26.5854 123.973 26.8695C124.61 27.1536 125.161 27.5031 125.627 27.9178C126.093 28.3326 126.454 28.8212 126.709 29.3837C126.971 29.9462 127.104 30.5911 127.11 31.3184C127.104 32.3866 126.831 33.3127 126.292 34.0968C125.758 34.8752 124.985 35.4803 123.973 35.9122C122.968 36.3383 121.755 36.5514 120.334 36.5514C118.925 36.5514 117.698 36.3354 116.652 35.9036C115.613 35.4718 114.8 34.8326 114.215 33.986C113.635 33.1337 113.331 32.0798 113.303 30.8241H116.874C116.914 31.4093 117.081 31.8979 117.377 32.29C117.678 32.6764 118.079 32.969 118.579 33.1678C119.084 33.361 119.655 33.4576 120.292 33.4576C120.917 33.4576 121.459 33.3667 121.92 33.1849C122.385 33.0031 122.746 32.7502 123.002 32.4264C123.258 32.1025 123.385 31.7303 123.385 31.3099C123.385 30.9178 123.269 30.5883 123.036 30.3212C122.809 30.0542 122.473 29.8269 122.03 29.6394C121.593 29.4519 121.056 29.2815 120.42 29.1281L118.519 28.6508C117.047 28.2928 115.885 27.7332 115.033 26.9718C114.181 26.2104 113.758 25.1849 113.763 23.8951C113.758 22.8383 114.039 21.915 114.607 21.1252C115.181 20.3354 115.968 19.719 116.968 19.2758C117.968 18.8326 119.104 18.611 120.377 18.611C121.672 18.611 122.803 18.8326 123.769 19.2758C124.741 19.719 125.496 20.3354 126.036 21.1252C126.576 21.915 126.854 22.8298 126.871 23.8695H123.334ZM133.282 18.8497V36.3042H129.592V18.8497H133.282ZM147.893 24.4917C147.773 24.0769 147.606 23.7104 147.39 23.3923C147.174 23.0684 146.91 22.7957 146.597 22.5741C146.29 22.3468 145.938 22.1735 145.54 22.0542C145.148 21.9349 144.714 21.8752 144.236 21.8752C143.344 21.8752 142.56 22.0968 141.884 22.54C141.214 22.9832 140.691 23.6281 140.316 24.4747C139.941 25.3156 139.753 26.344 139.753 27.5599C139.753 28.7758 139.938 29.8099 140.307 30.6622C140.677 31.5144 141.199 32.165 141.875 32.6139C142.552 33.057 143.35 33.2786 144.27 33.2786C145.106 33.2786 145.819 33.1309 146.41 32.8354C147.006 32.5343 147.461 32.111 147.773 31.5656C148.091 31.0201 148.25 30.3752 148.25 29.6309L149 29.7417H144.5V26.9633H151.804V29.1622C151.804 30.6962 151.481 32.0144 150.833 33.1167C150.185 34.2133 149.293 35.0599 148.157 35.6565C147.02 36.2474 145.719 36.5428 144.253 36.5428C142.617 36.5428 141.179 36.182 139.941 35.4604C138.702 34.7332 137.736 33.7019 137.043 32.3667C136.356 31.0258 136.012 29.4349 136.012 27.594C136.012 26.1792 136.216 24.9178 136.625 23.8099C137.04 22.6962 137.62 21.7531 138.364 20.9803C139.108 20.2076 139.975 19.6195 140.964 19.2161C141.952 18.8127 143.023 18.611 144.177 18.611C145.165 18.611 146.086 18.7559 146.938 19.0457C147.79 19.3298 148.546 19.7332 149.205 20.2559C149.87 20.7786 150.412 21.4008 150.833 22.1224C151.253 22.8383 151.523 23.6281 151.643 24.4917H147.893ZM169.176 18.8497V36.3042H165.988L158.395 25.3184H158.267V36.3042H154.576V18.8497H157.815L165.349 29.8269H165.503V18.8497H169.176ZM172.037 36.3042V34.1139L180.748 21.8923H172.02V18.8497H185.384V21.04L176.665 33.2616H185.401V36.3042H172.037Z" fill="#2A55FF"/>
<defs>
<clipPath id="clip0_7_798">
<rect width="18" height="18" fill="white" transform="translate(14 23)"/>
</clipPath>
</defs>
</svg>
